<mxfile host="app.diagrams.net" modified="2021-12-13T07:39:20.949Z" agent="5.0 (X11; Linux x86_64) AppleWebKit/537.36 (KHTML, like Gecko) Chrome/94.0.4606.61 Safari/537.36 Edg/94.0.992.31" etag="k0s_yTzb4ZMtWA8wccbC" version="15.9.1" type="github">
  <diagram id="Jangnhme9DXzP1kY6yUE" name="Page-1">
    <mxGraphModel dx="2249" dy="1969" grid="1" gridSize="10" guides="1" tooltips="1" connect="1" arrows="1" fold="1" page="1" pageScale="1" pageWidth="827" pageHeight="1169" math="0" shadow="0">
      <root>
        <mxCell id="0" />
        <mxCell id="1" parent="0" />
        <mxCell id="0NIgbw2krBY6JishTZcX-67" value="" style="rounded=0;whiteSpace=wrap;html=1;shadow=0;glass=0;dashed=1;sketch=0;fontSize=11;" parent="1" vertex="1">
          <mxGeometry x="600" y="130" width="120" height="90" as="geometry" />
        </mxCell>
        <mxCell id="0NIgbw2krBY6JishTZcX-52" value="" style="rounded=0;whiteSpace=wrap;html=1;shadow=0;glass=0;dashed=1;sketch=0;fontSize=11;" parent="1" vertex="1">
          <mxGeometry x="280" y="500" width="120" height="90" as="geometry" />
        </mxCell>
        <mxCell id="0NIgbw2krBY6JishTZcX-56" value="" style="edgeStyle=orthogonalEdgeStyle;rounded=0;orthogonalLoop=1;jettySize=auto;html=1;fontSize=11;" parent="1" source="0NIgbw2krBY6JishTZcX-51" target="0NIgbw2krBY6JishTZcX-42" edge="1">
          <mxGeometry relative="1" as="geometry" />
        </mxCell>
        <mxCell id="0NIgbw2krBY6JishTZcX-51" value="" style="rounded=0;whiteSpace=wrap;html=1;shadow=0;glass=0;dashed=1;sketch=0;fontSize=11;" parent="1" vertex="1">
          <mxGeometry x="280" y="140" width="120" height="90" as="geometry" />
        </mxCell>
        <mxCell id="0NIgbw2krBY6JishTZcX-9" value="" style="edgeStyle=orthogonalEdgeStyle;rounded=0;orthogonalLoop=1;jettySize=auto;html=1;" parent="1" source="0NIgbw2krBY6JishTZcX-7" target="0NIgbw2krBY6JishTZcX-8" edge="1">
          <mxGeometry relative="1" as="geometry" />
        </mxCell>
        <mxCell id="0NIgbw2krBY6JishTZcX-7" value="X" style="ellipse;whiteSpace=wrap;html=1;aspect=fixed;" parent="1" vertex="1">
          <mxGeometry x="40" y="40" width="40" height="40" as="geometry" />
        </mxCell>
        <mxCell id="0NIgbw2krBY6JishTZcX-11" value="" style="edgeStyle=orthogonalEdgeStyle;rounded=0;orthogonalLoop=1;jettySize=auto;html=1;" parent="1" source="0NIgbw2krBY6JishTZcX-8" target="0NIgbw2krBY6JishTZcX-10" edge="1">
          <mxGeometry relative="1" as="geometry" />
        </mxCell>
        <mxCell id="0NIgbw2krBY6JishTZcX-8" value="conv" style="whiteSpace=wrap;html=1;rounded=1;" parent="1" vertex="1">
          <mxGeometry x="40" y="160" width="40" height="40" as="geometry" />
        </mxCell>
        <mxCell id="0NIgbw2krBY6JishTZcX-13" value="" style="edgeStyle=orthogonalEdgeStyle;rounded=0;orthogonalLoop=1;jettySize=auto;html=1;" parent="1" source="0NIgbw2krBY6JishTZcX-10" edge="1">
          <mxGeometry relative="1" as="geometry">
            <mxPoint x="60" y="400" as="targetPoint" />
          </mxGeometry>
        </mxCell>
        <mxCell id="0NIgbw2krBY6JishTZcX-10" value="relu" style="whiteSpace=wrap;html=1;rounded=1;" parent="1" vertex="1">
          <mxGeometry x="40" y="280" width="40" height="40" as="geometry" />
        </mxCell>
        <mxCell id="0NIgbw2krBY6JishTZcX-15" value="" style="edgeStyle=orthogonalEdgeStyle;rounded=0;orthogonalLoop=1;jettySize=auto;html=1;" parent="1" edge="1">
          <mxGeometry relative="1" as="geometry">
            <mxPoint x="60" y="440" as="sourcePoint" />
            <mxPoint x="60" y="520" as="targetPoint" />
          </mxGeometry>
        </mxCell>
        <mxCell id="0NIgbw2krBY6JishTZcX-12" value="bn" style="whiteSpace=wrap;html=1;rounded=1;" parent="1" vertex="1">
          <mxGeometry x="40" y="400" width="40" height="40" as="geometry" />
        </mxCell>
        <mxCell id="0NIgbw2krBY6JishTZcX-16" style="edgeStyle=orthogonalEdgeStyle;rounded=0;orthogonalLoop=1;jettySize=auto;html=1;" parent="1" edge="1">
          <mxGeometry relative="1" as="geometry">
            <mxPoint x="60" y="640" as="targetPoint" />
            <mxPoint x="60" y="560" as="sourcePoint" />
          </mxGeometry>
        </mxCell>
        <mxCell id="0NIgbw2krBY6JishTZcX-14" value="linear" style="whiteSpace=wrap;html=1;rounded=1;" parent="1" vertex="1">
          <mxGeometry x="40" y="520" width="40" height="40" as="geometry" />
        </mxCell>
        <mxCell id="0NIgbw2krBY6JishTZcX-18" value="" style="edgeStyle=orthogonalEdgeStyle;rounded=0;orthogonalLoop=1;jettySize=auto;html=1;" parent="1" source="0NIgbw2krBY6JishTZcX-17" target="0NIgbw2krBY6JishTZcX-8" edge="1">
          <mxGeometry relative="1" as="geometry" />
        </mxCell>
        <mxCell id="0NIgbw2krBY6JishTZcX-17" value="W" style="ellipse;whiteSpace=wrap;html=1;aspect=fixed;" parent="1" vertex="1">
          <mxGeometry x="-80" y="160" width="40" height="40" as="geometry" />
        </mxCell>
        <mxCell id="0NIgbw2krBY6JishTZcX-20" value="" style="edgeStyle=orthogonalEdgeStyle;rounded=0;orthogonalLoop=1;jettySize=auto;html=1;" parent="1" source="0NIgbw2krBY6JishTZcX-19" target="0NIgbw2krBY6JishTZcX-14" edge="1">
          <mxGeometry relative="1" as="geometry" />
        </mxCell>
        <mxCell id="0NIgbw2krBY6JishTZcX-19" value="W" style="ellipse;whiteSpace=wrap;html=1;aspect=fixed;" parent="1" vertex="1">
          <mxGeometry x="-80" y="520" width="40" height="40" as="geometry" />
        </mxCell>
        <mxCell id="0NIgbw2krBY6JishTZcX-36" value="&lt;font style=&quot;font-size: 11px&quot;&gt;MinmaxObserver&lt;/font&gt;" style="text;html=1;strokeColor=default;fillColor=none;align=center;verticalAlign=middle;whiteSpace=wrap;rounded=0;shadow=0;glass=1;sketch=0;dashed=1;dashPattern=1 1;" parent="1" vertex="1">
          <mxGeometry x="300" y="210" width="100" height="20" as="geometry" />
        </mxCell>
        <mxCell id="0NIgbw2krBY6JishTZcX-57" value="" style="edgeStyle=orthogonalEdgeStyle;rounded=0;orthogonalLoop=1;jettySize=auto;html=1;fontSize=11;" parent="1" source="0NIgbw2krBY6JishTZcX-38" edge="1">
          <mxGeometry relative="1" as="geometry">
            <mxPoint x="340" y="140" as="targetPoint" />
          </mxGeometry>
        </mxCell>
        <mxCell id="0NIgbw2krBY6JishTZcX-38" value="X" style="ellipse;whiteSpace=wrap;html=1;aspect=fixed;" parent="1" vertex="1">
          <mxGeometry x="320" y="40" width="40" height="40" as="geometry" />
        </mxCell>
        <mxCell id="0NIgbw2krBY6JishTZcX-40" value="conv" style="whiteSpace=wrap;html=1;rounded=1;" parent="1" vertex="1">
          <mxGeometry x="320" y="160" width="40" height="40" as="geometry" />
        </mxCell>
        <mxCell id="0NIgbw2krBY6JishTZcX-41" value="" style="edgeStyle=orthogonalEdgeStyle;rounded=0;orthogonalLoop=1;jettySize=auto;html=1;" parent="1" source="0NIgbw2krBY6JishTZcX-42" edge="1">
          <mxGeometry relative="1" as="geometry">
            <mxPoint x="340" y="400" as="targetPoint" />
          </mxGeometry>
        </mxCell>
        <mxCell id="0NIgbw2krBY6JishTZcX-42" value="relu" style="whiteSpace=wrap;html=1;rounded=1;" parent="1" vertex="1">
          <mxGeometry x="320" y="280" width="40" height="40" as="geometry" />
        </mxCell>
        <mxCell id="0NIgbw2krBY6JishTZcX-43" value="" style="edgeStyle=orthogonalEdgeStyle;rounded=0;orthogonalLoop=1;jettySize=auto;html=1;" parent="1" edge="1">
          <mxGeometry relative="1" as="geometry">
            <mxPoint x="340" y="440" as="sourcePoint" />
            <mxPoint x="340" y="500" as="targetPoint" />
          </mxGeometry>
        </mxCell>
        <mxCell id="0NIgbw2krBY6JishTZcX-44" value="bn" style="whiteSpace=wrap;html=1;rounded=1;" parent="1" vertex="1">
          <mxGeometry x="320" y="400" width="40" height="40" as="geometry" />
        </mxCell>
        <mxCell id="0NIgbw2krBY6JishTZcX-45" style="edgeStyle=orthogonalEdgeStyle;rounded=0;orthogonalLoop=1;jettySize=auto;html=1;" parent="1" edge="1">
          <mxGeometry relative="1" as="geometry">
            <mxPoint x="340" y="640" as="targetPoint" />
            <mxPoint x="340" y="590" as="sourcePoint" />
          </mxGeometry>
        </mxCell>
        <mxCell id="0NIgbw2krBY6JishTZcX-46" value="linear" style="whiteSpace=wrap;html=1;rounded=1;" parent="1" vertex="1">
          <mxGeometry x="320" y="520" width="40" height="40" as="geometry" />
        </mxCell>
        <mxCell id="0NIgbw2krBY6JishTZcX-55" style="edgeStyle=orthogonalEdgeStyle;rounded=0;orthogonalLoop=1;jettySize=auto;html=1;entryX=-0.004;entryY=0.451;entryDx=0;entryDy=0;entryPerimeter=0;fontSize=11;" parent="1" source="0NIgbw2krBY6JishTZcX-48" target="0NIgbw2krBY6JishTZcX-51" edge="1">
          <mxGeometry relative="1" as="geometry" />
        </mxCell>
        <mxCell id="0NIgbw2krBY6JishTZcX-48" value="W" style="ellipse;whiteSpace=wrap;html=1;aspect=fixed;" parent="1" vertex="1">
          <mxGeometry x="200" y="160" width="40" height="40" as="geometry" />
        </mxCell>
        <mxCell id="0NIgbw2krBY6JishTZcX-54" style="edgeStyle=orthogonalEdgeStyle;rounded=0;orthogonalLoop=1;jettySize=auto;html=1;entryX=-0.016;entryY=0.446;entryDx=0;entryDy=0;entryPerimeter=0;fontSize=11;" parent="1" source="0NIgbw2krBY6JishTZcX-50" target="0NIgbw2krBY6JishTZcX-52" edge="1">
          <mxGeometry relative="1" as="geometry" />
        </mxCell>
        <mxCell id="0NIgbw2krBY6JishTZcX-50" value="W" style="ellipse;whiteSpace=wrap;html=1;aspect=fixed;" parent="1" vertex="1">
          <mxGeometry x="200" y="520" width="40" height="40" as="geometry" />
        </mxCell>
        <mxCell id="0NIgbw2krBY6JishTZcX-53" value="&lt;font style=&quot;font-size: 11px&quot;&gt;MinmaxObserver&lt;/font&gt;" style="text;html=1;strokeColor=default;fillColor=none;align=center;verticalAlign=middle;whiteSpace=wrap;rounded=0;shadow=0;glass=1;dashed=1;sketch=0;dashPattern=1 1;" parent="1" vertex="1">
          <mxGeometry x="300" y="570" width="100" height="20" as="geometry" />
        </mxCell>
        <mxCell id="0NIgbw2krBY6JishTZcX-59" value="" style="shape=curlyBracket;whiteSpace=wrap;html=1;rounded=1;shadow=0;glass=0;sketch=0;fontSize=11;strokeColor=default;" parent="1" vertex="1">
          <mxGeometry x="400" y="210" width="20" height="20" as="geometry" />
        </mxCell>
        <mxCell id="0NIgbw2krBY6JishTZcX-60" value="qscale" style="text;html=1;align=center;verticalAlign=middle;resizable=0;points=[];autosize=1;strokeColor=#d79b00;fillColor=#ffe6cc;fontSize=11;" parent="1" vertex="1">
          <mxGeometry x="610" y="120" width="50" height="20" as="geometry" />
        </mxCell>
        <mxCell id="0NIgbw2krBY6JishTZcX-61" value="qmode" style="text;html=1;align=center;verticalAlign=middle;resizable=0;points=[];autosize=1;strokeColor=#b85450;fillColor=#f8cecc;fontSize=11;" parent="1" vertex="1">
          <mxGeometry x="420" y="220" width="50" height="20" as="geometry" />
        </mxCell>
        <mxCell id="0NIgbw2krBY6JishTZcX-62" value="" style="shape=curlyBracket;whiteSpace=wrap;html=1;rounded=1;shadow=0;glass=0;sketch=0;fontSize=11;strokeColor=default;" parent="1" vertex="1">
          <mxGeometry x="400" y="570" width="20" height="20" as="geometry" />
        </mxCell>
        <mxCell id="0NIgbw2krBY6JishTZcX-63" value="qscale" style="text;html=1;align=center;verticalAlign=middle;resizable=0;points=[];autosize=1;strokeColor=#d79b00;fillColor=#ffe6cc;fontSize=11;" parent="1" vertex="1">
          <mxGeometry x="420" y="560" width="50" height="20" as="geometry" />
        </mxCell>
        <mxCell id="0NIgbw2krBY6JishTZcX-64" value="qmode" style="text;html=1;align=center;verticalAlign=middle;resizable=0;points=[];autosize=1;strokeColor=#b85450;fillColor=#f8cecc;fontSize=11;" parent="1" vertex="1">
          <mxGeometry x="420" y="580" width="50" height="20" as="geometry" />
        </mxCell>
        <mxCell id="0NIgbw2krBY6JishTZcX-65" value="" style="rounded=0;whiteSpace=wrap;html=1;shadow=0;glass=0;dashed=1;sketch=0;fontSize=11;" parent="1" vertex="1">
          <mxGeometry x="600" y="490" width="120" height="100" as="geometry" />
        </mxCell>
        <mxCell id="0NIgbw2krBY6JishTZcX-66" value="" style="edgeStyle=orthogonalEdgeStyle;rounded=0;orthogonalLoop=1;jettySize=auto;html=1;fontSize=11;" parent="1" source="0NIgbw2krBY6JishTZcX-67" target="0NIgbw2krBY6JishTZcX-73" edge="1">
          <mxGeometry relative="1" as="geometry" />
        </mxCell>
        <mxCell id="0NIgbw2krBY6JishTZcX-69" value="" style="edgeStyle=orthogonalEdgeStyle;rounded=0;orthogonalLoop=1;jettySize=auto;html=1;fontSize=11;" parent="1" source="0NIgbw2krBY6JishTZcX-70" edge="1">
          <mxGeometry relative="1" as="geometry">
            <mxPoint x="660" y="130" as="targetPoint" />
          </mxGeometry>
        </mxCell>
        <mxCell id="0NIgbw2krBY6JishTZcX-70" value="X" style="ellipse;whiteSpace=wrap;html=1;aspect=fixed;" parent="1" vertex="1">
          <mxGeometry x="640" y="40" width="40" height="40" as="geometry" />
        </mxCell>
        <mxCell id="0NIgbw2krBY6JishTZcX-71" value="conv" style="whiteSpace=wrap;html=1;rounded=1;" parent="1" vertex="1">
          <mxGeometry x="640" y="160" width="40" height="40" as="geometry" />
        </mxCell>
        <mxCell id="0NIgbw2krBY6JishTZcX-72" value="" style="edgeStyle=orthogonalEdgeStyle;rounded=0;orthogonalLoop=1;jettySize=auto;html=1;" parent="1" source="0NIgbw2krBY6JishTZcX-73" edge="1">
          <mxGeometry relative="1" as="geometry">
            <mxPoint x="660" y="400" as="targetPoint" />
          </mxGeometry>
        </mxCell>
        <mxCell id="0NIgbw2krBY6JishTZcX-73" value="relu" style="whiteSpace=wrap;html=1;rounded=1;" parent="1" vertex="1">
          <mxGeometry x="640" y="280" width="40" height="40" as="geometry" />
        </mxCell>
        <mxCell id="0NIgbw2krBY6JishTZcX-74" value="" style="edgeStyle=orthogonalEdgeStyle;rounded=0;orthogonalLoop=1;jettySize=auto;html=1;" parent="1" edge="1">
          <mxGeometry relative="1" as="geometry">
            <mxPoint x="660" y="440" as="sourcePoint" />
            <mxPoint x="660" y="490" as="targetPoint" />
          </mxGeometry>
        </mxCell>
        <mxCell id="0NIgbw2krBY6JishTZcX-75" value="bn" style="whiteSpace=wrap;html=1;rounded=1;" parent="1" vertex="1">
          <mxGeometry x="640" y="400" width="40" height="40" as="geometry" />
        </mxCell>
        <mxCell id="0NIgbw2krBY6JishTZcX-76" style="edgeStyle=orthogonalEdgeStyle;rounded=0;orthogonalLoop=1;jettySize=auto;html=1;" parent="1" edge="1">
          <mxGeometry relative="1" as="geometry">
            <mxPoint x="660" y="640" as="targetPoint" />
            <mxPoint x="660" y="590" as="sourcePoint" />
          </mxGeometry>
        </mxCell>
        <mxCell id="0NIgbw2krBY6JishTZcX-77" value="linear" style="whiteSpace=wrap;html=1;rounded=1;" parent="1" vertex="1">
          <mxGeometry x="640" y="520" width="40" height="40" as="geometry" />
        </mxCell>
        <mxCell id="0NIgbw2krBY6JishTZcX-97" style="edgeStyle=orthogonalEdgeStyle;rounded=0;orthogonalLoop=1;jettySize=auto;html=1;entryX=-0.014;entryY=0.563;entryDx=0;entryDy=0;entryPerimeter=0;fontSize=11;" parent="1" source="0NIgbw2krBY6JishTZcX-79" target="0NIgbw2krBY6JishTZcX-67" edge="1">
          <mxGeometry relative="1" as="geometry" />
        </mxCell>
        <mxCell id="0NIgbw2krBY6JishTZcX-79" value="W" style="ellipse;whiteSpace=wrap;html=1;aspect=fixed;" parent="1" vertex="1">
          <mxGeometry x="520" y="160" width="40" height="40" as="geometry" />
        </mxCell>
        <mxCell id="0NIgbw2krBY6JishTZcX-94" style="edgeStyle=orthogonalEdgeStyle;rounded=0;orthogonalLoop=1;jettySize=auto;html=1;entryX=0;entryY=0.5;entryDx=0;entryDy=0;fontSize=11;" parent="1" source="0NIgbw2krBY6JishTZcX-81" target="0NIgbw2krBY6JishTZcX-65" edge="1">
          <mxGeometry relative="1" as="geometry" />
        </mxCell>
        <mxCell id="0NIgbw2krBY6JishTZcX-81" value="W" style="ellipse;whiteSpace=wrap;html=1;aspect=fixed;" parent="1" vertex="1">
          <mxGeometry x="520" y="520" width="40" height="40" as="geometry" />
        </mxCell>
        <mxCell id="0NIgbw2krBY6JishTZcX-89" value="qscale" style="text;html=1;align=center;verticalAlign=middle;resizable=0;points=[];autosize=1;strokeColor=#d79b00;fillColor=#ffe6cc;fontSize=11;" parent="1" vertex="1">
          <mxGeometry x="420" y="200" width="50" height="20" as="geometry" />
        </mxCell>
        <mxCell id="0NIgbw2krBY6JishTZcX-90" value="qmode" style="text;html=1;align=center;verticalAlign=middle;resizable=0;points=[];autosize=1;strokeColor=#b85450;fillColor=#f8cecc;fontSize=11;" parent="1" vertex="1">
          <mxGeometry x="580" y="180" width="50" height="20" as="geometry" />
        </mxCell>
        <mxCell id="0NIgbw2krBY6JishTZcX-91" value="qscale" style="text;html=1;align=center;verticalAlign=middle;resizable=0;points=[];autosize=1;strokeColor=#d79b00;fillColor=#ffe6cc;fontSize=11;" parent="1" vertex="1">
          <mxGeometry x="610" y="480" width="50" height="20" as="geometry" />
        </mxCell>
        <mxCell id="0NIgbw2krBY6JishTZcX-92" value="qmode" style="text;html=1;align=center;verticalAlign=middle;resizable=0;points=[];autosize=1;strokeColor=#b85450;fillColor=#f8cecc;fontSize=11;" parent="1" vertex="1">
          <mxGeometry x="660" y="480" width="50" height="20" as="geometry" />
        </mxCell>
        <mxCell id="0NIgbw2krBY6JishTZcX-99" value="qmode" style="text;html=1;align=center;verticalAlign=middle;resizable=0;points=[];autosize=1;strokeColor=#b85450;fillColor=#f8cecc;fontSize=11;" parent="1" vertex="1">
          <mxGeometry x="660" y="120" width="50" height="20" as="geometry" />
        </mxCell>
        <mxCell id="0NIgbw2krBY6JishTZcX-100" value="qscale" style="text;html=1;align=center;verticalAlign=middle;resizable=0;points=[];autosize=1;strokeColor=#d79b00;fillColor=#ffe6cc;fontSize=11;" parent="1" vertex="1">
          <mxGeometry x="580" y="160" width="50" height="20" as="geometry" />
        </mxCell>
        <mxCell id="0NIgbw2krBY6JishTZcX-101" value="qscale" style="text;html=1;align=center;verticalAlign=middle;resizable=0;points=[];autosize=1;strokeColor=#d79b00;fillColor=#ffe6cc;fontSize=11;" parent="1" vertex="1">
          <mxGeometry x="580" y="520" width="50" height="20" as="geometry" />
        </mxCell>
        <mxCell id="0NIgbw2krBY6JishTZcX-102" value="qmode" style="text;html=1;align=center;verticalAlign=middle;resizable=0;points=[];autosize=1;strokeColor=#b85450;fillColor=#f8cecc;fontSize=11;" parent="1" vertex="1">
          <mxGeometry x="580" y="540" width="50" height="20" as="geometry" />
        </mxCell>
        <mxCell id="0NIgbw2krBY6JishTZcX-103" value="" style="rounded=0;whiteSpace=wrap;html=1;shadow=0;glass=0;dashed=1;sketch=0;fontSize=11;" parent="1" vertex="1">
          <mxGeometry x="880" y="130" width="120" height="100" as="geometry" />
        </mxCell>
        <mxCell id="0NIgbw2krBY6JishTZcX-104" value="qscale" style="text;html=1;align=center;verticalAlign=middle;resizable=0;points=[];autosize=1;strokeColor=#d79b00;fillColor=#ffe6cc;fontSize=11;" parent="1" vertex="1">
          <mxGeometry x="890" y="120" width="50" height="20" as="geometry" />
        </mxCell>
        <mxCell id="0NIgbw2krBY6JishTZcX-105" value="" style="rounded=0;whiteSpace=wrap;html=1;shadow=0;glass=0;dashed=1;sketch=0;fontSize=11;" parent="1" vertex="1">
          <mxGeometry x="880" y="490" width="120" height="100" as="geometry" />
        </mxCell>
        <mxCell id="0NIgbw2krBY6JishTZcX-108" value="dX" style="ellipse;whiteSpace=wrap;html=1;aspect=fixed;" parent="1" vertex="1">
          <mxGeometry x="920" y="40" width="40" height="40" as="geometry" />
        </mxCell>
        <mxCell id="0NIgbw2krBY6JishTZcX-109" value="conv" style="whiteSpace=wrap;html=1;rounded=1;" parent="1" vertex="1">
          <mxGeometry x="920" y="160" width="40" height="40" as="geometry" />
        </mxCell>
        <mxCell id="0NIgbw2krBY6JishTZcX-111" value="relu" style="whiteSpace=wrap;html=1;rounded=1;" parent="1" vertex="1">
          <mxGeometry x="920" y="280" width="40" height="40" as="geometry" />
        </mxCell>
        <mxCell id="0NIgbw2krBY6JishTZcX-113" value="bn" style="whiteSpace=wrap;html=1;rounded=1;" parent="1" vertex="1">
          <mxGeometry x="920" y="400" width="40" height="40" as="geometry" />
        </mxCell>
        <mxCell id="0NIgbw2krBY6JishTZcX-115" value="linear" style="whiteSpace=wrap;html=1;rounded=1;" parent="1" vertex="1">
          <mxGeometry x="920" y="520" width="40" height="40" as="geometry" />
        </mxCell>
        <mxCell id="0NIgbw2krBY6JishTZcX-117" value="dW" style="ellipse;whiteSpace=wrap;html=1;aspect=fixed;" parent="1" vertex="1">
          <mxGeometry x="800" y="160" width="40" height="40" as="geometry" />
        </mxCell>
        <mxCell id="0NIgbw2krBY6JishTZcX-119" value="dW" style="ellipse;whiteSpace=wrap;html=1;aspect=fixed;" parent="1" vertex="1">
          <mxGeometry x="800" y="520" width="40" height="40" as="geometry" />
        </mxCell>
        <mxCell id="0NIgbw2krBY6JishTZcX-120" value="cutoff" style="text;html=1;align=center;verticalAlign=middle;resizable=0;points=[];autosize=1;strokeColor=#82b366;fillColor=#d5e8d4;fontSize=11;" parent="1" vertex="1">
          <mxGeometry x="865" y="180" width="40" height="20" as="geometry" />
        </mxCell>
        <mxCell id="0NIgbw2krBY6JishTZcX-121" value="qscale" style="text;html=1;align=center;verticalAlign=middle;resizable=0;points=[];autosize=1;strokeColor=#d79b00;fillColor=#ffe6cc;fontSize=11;" parent="1" vertex="1">
          <mxGeometry x="890" y="480" width="50" height="20" as="geometry" />
        </mxCell>
        <mxCell id="0NIgbw2krBY6JishTZcX-122" value="cutoff" style="text;html=1;align=center;verticalAlign=middle;resizable=0;points=[];autosize=1;strokeColor=#82b366;fillColor=#d5e8d4;fontSize=11;" parent="1" vertex="1">
          <mxGeometry x="945" y="480" width="40" height="20" as="geometry" />
        </mxCell>
        <mxCell id="0NIgbw2krBY6JishTZcX-123" value="cutoff" style="text;html=1;align=center;verticalAlign=middle;resizable=0;points=[];autosize=1;strokeColor=#82b366;fillColor=#d5e8d4;fontSize=11;" parent="1" vertex="1">
          <mxGeometry x="945" y="120" width="40" height="20" as="geometry" />
        </mxCell>
        <mxCell id="0NIgbw2krBY6JishTZcX-124" value="qscale" style="text;html=1;align=center;verticalAlign=middle;resizable=0;points=[];autosize=1;strokeColor=#d79b00;fillColor=#ffe6cc;fontSize=11;" parent="1" vertex="1">
          <mxGeometry x="860" y="160" width="50" height="20" as="geometry" />
        </mxCell>
        <mxCell id="0NIgbw2krBY6JishTZcX-125" value="qscale" style="text;html=1;align=center;verticalAlign=middle;resizable=0;points=[];autosize=1;strokeColor=#d79b00;fillColor=#ffe6cc;fontSize=11;" parent="1" vertex="1">
          <mxGeometry x="860" y="520" width="50" height="20" as="geometry" />
        </mxCell>
        <mxCell id="0NIgbw2krBY6JishTZcX-126" value="cutoff" style="text;html=1;align=center;verticalAlign=middle;resizable=0;points=[];autosize=1;strokeColor=#82b366;fillColor=#d5e8d4;fontSize=11;" parent="1" vertex="1">
          <mxGeometry x="865" y="540" width="40" height="20" as="geometry" />
        </mxCell>
        <mxCell id="0NIgbw2krBY6JishTZcX-127" value="" style="endArrow=classic;html=1;rounded=0;fontSize=11;entryX=0.5;entryY=1;entryDx=0;entryDy=0;" parent="1" target="0NIgbw2krBY6JishTZcX-105" edge="1">
          <mxGeometry width="50" height="50" relative="1" as="geometry">
            <mxPoint x="940" y="640" as="sourcePoint" />
            <mxPoint x="980" y="650" as="targetPoint" />
          </mxGeometry>
        </mxCell>
        <mxCell id="0NIgbw2krBY6JishTZcX-128" value="QDQ" style="text;html=1;align=center;verticalAlign=middle;resizable=0;points=[];autosize=1;strokeColor=#6c8ebf;fillColor=#dae8fc;fontSize=11;" parent="1" vertex="1">
          <mxGeometry x="920" y="570" width="40" height="20" as="geometry" />
        </mxCell>
        <mxCell id="0NIgbw2krBY6JishTZcX-129" value="QDQ" style="text;html=1;align=center;verticalAlign=middle;resizable=0;points=[];autosize=1;strokeColor=#6c8ebf;fillColor=#dae8fc;fontSize=11;" parent="1" vertex="1">
          <mxGeometry x="920" y="210" width="40" height="20" as="geometry" />
        </mxCell>
        <mxCell id="0NIgbw2krBY6JishTZcX-130" value="" style="endArrow=classic;html=1;rounded=0;fontSize=11;entryX=0.5;entryY=1;entryDx=0;entryDy=0;exitX=0.5;exitY=0;exitDx=0;exitDy=0;" parent="1" source="0NIgbw2krBY6JishTZcX-113" edge="1">
          <mxGeometry width="50" height="50" relative="1" as="geometry">
            <mxPoint x="939" y="370" as="sourcePoint" />
            <mxPoint x="939" y="320" as="targetPoint" />
          </mxGeometry>
        </mxCell>
        <mxCell id="0NIgbw2krBY6JishTZcX-131" value="" style="endArrow=classic;html=1;rounded=0;fontSize=11;entryX=0.5;entryY=1;entryDx=0;entryDy=0;" parent="1" edge="1">
          <mxGeometry width="50" height="50" relative="1" as="geometry">
            <mxPoint x="939" y="280" as="sourcePoint" />
            <mxPoint x="939" y="230" as="targetPoint" />
          </mxGeometry>
        </mxCell>
        <mxCell id="0NIgbw2krBY6JishTZcX-132" value="" style="endArrow=classic;html=1;rounded=0;fontSize=11;entryX=0.5;entryY=1;entryDx=0;entryDy=0;" parent="1" edge="1">
          <mxGeometry width="50" height="50" relative="1" as="geometry">
            <mxPoint x="940" y="120" as="sourcePoint" />
            <mxPoint x="940" y="80" as="targetPoint" />
          </mxGeometry>
        </mxCell>
        <mxCell id="0NIgbw2krBY6JishTZcX-133" value="" style="endArrow=classic;html=1;rounded=0;fontSize=11;entryX=0.5;entryY=1;entryDx=0;entryDy=0;" parent="1" edge="1">
          <mxGeometry width="50" height="50" relative="1" as="geometry">
            <mxPoint x="939" y="480" as="sourcePoint" />
            <mxPoint x="939" y="440" as="targetPoint" />
          </mxGeometry>
        </mxCell>
        <mxCell id="0NIgbw2krBY6JishTZcX-134" value="" style="endArrow=classic;html=1;rounded=0;fontSize=11;entryX=1;entryY=0.5;entryDx=0;entryDy=0;" parent="1" target="0NIgbw2krBY6JishTZcX-119" edge="1">
          <mxGeometry width="50" height="50" relative="1" as="geometry">
            <mxPoint x="860" y="540" as="sourcePoint" />
            <mxPoint x="949" y="450" as="targetPoint" />
          </mxGeometry>
        </mxCell>
        <mxCell id="0NIgbw2krBY6JishTZcX-137" value="" style="endArrow=classic;html=1;rounded=0;fontSize=11;entryX=1;entryY=0.5;entryDx=0;entryDy=0;" parent="1" target="0NIgbw2krBY6JishTZcX-117" edge="1">
          <mxGeometry width="50" height="50" relative="1" as="geometry">
            <mxPoint x="860" y="180" as="sourcePoint" />
            <mxPoint x="850" y="550" as="targetPoint" />
          </mxGeometry>
        </mxCell>
        <mxCell id="0NIgbw2krBY6JishTZcX-138" value="&lt;font style=&quot;font-size: 14px&quot;&gt;原始网络&lt;/font&gt;" style="text;html=1;strokeColor=none;fillColor=none;align=center;verticalAlign=middle;whiteSpace=wrap;rounded=0;shadow=0;glass=0;sketch=0;fontSize=11;" parent="1" vertex="1">
          <mxGeometry y="-40" width="120" height="39" as="geometry" />
        </mxCell>
        <mxCell id="0NIgbw2krBY6JishTZcX-139" value="&lt;font style=&quot;font-size: 14px&quot;&gt;添加observer&lt;/font&gt;" style="text;html=1;strokeColor=none;fillColor=none;align=center;verticalAlign=middle;whiteSpace=wrap;rounded=0;shadow=0;glass=0;sketch=0;fontSize=11;" parent="1" vertex="1">
          <mxGeometry x="280" y="-40" width="120" height="39" as="geometry" />
        </mxCell>
        <mxCell id="0NIgbw2krBY6JishTZcX-140" value="&lt;font style=&quot;font-size: 14px&quot;&gt;forward&lt;/font&gt;" style="text;html=1;strokeColor=none;fillColor=none;align=center;verticalAlign=middle;whiteSpace=wrap;rounded=0;shadow=0;glass=0;sketch=0;fontSize=11;" parent="1" vertex="1">
          <mxGeometry x="600" y="-40" width="120" height="39" as="geometry" />
        </mxCell>
        <mxCell id="0NIgbw2krBY6JishTZcX-141" value="&lt;font style=&quot;font-size: 14px&quot;&gt;backward&lt;/font&gt;" style="text;html=1;strokeColor=none;fillColor=none;align=center;verticalAlign=middle;whiteSpace=wrap;rounded=0;shadow=0;glass=0;sketch=0;fontSize=11;" parent="1" vertex="1">
          <mxGeometry x="880" y="-40" width="120" height="39" as="geometry" />
        </mxCell>
        <mxCell id="5mBXkaBFSa4gwNnaJI-y-1" value="&lt;font style=&quot;font-size: 18px&quot; color=&quot;#999999&quot;&gt;&lt;b&gt;&lt;i&gt;step-0&lt;/i&gt;&lt;/b&gt;&lt;/font&gt;" style="text;html=1;strokeColor=none;fillColor=none;align=center;verticalAlign=middle;whiteSpace=wrap;rounded=0;" vertex="1" parent="1">
          <mxGeometry x="30" y="-110" width="60" height="30" as="geometry" />
        </mxCell>
        <mxCell id="5mBXkaBFSa4gwNnaJI-y-3" value="&lt;font style=&quot;font-size: 18px&quot;&gt;&lt;b&gt;&lt;i&gt;step-1&lt;/i&gt;&lt;/b&gt;&lt;/font&gt;" style="text;html=1;strokeColor=none;fillColor=none;align=center;verticalAlign=middle;whiteSpace=wrap;rounded=0;" vertex="1" parent="1">
          <mxGeometry x="310" y="-110" width="60" height="30" as="geometry" />
        </mxCell>
        <mxCell id="5mBXkaBFSa4gwNnaJI-y-4" value="&lt;font style=&quot;font-size: 18px&quot;&gt;&lt;b&gt;&lt;i&gt;step-2&lt;/i&gt;&lt;/b&gt;&lt;/font&gt;" style="text;html=1;strokeColor=none;fillColor=none;align=center;verticalAlign=middle;whiteSpace=wrap;rounded=0;" vertex="1" parent="1">
          <mxGeometry x="630" y="-110" width="60" height="30" as="geometry" />
        </mxCell>
        <mxCell id="5mBXkaBFSa4gwNnaJI-y-5" value="&lt;font style=&quot;font-size: 18px&quot;&gt;&lt;b&gt;&lt;i&gt;step-3&lt;/i&gt;&lt;/b&gt;&lt;/font&gt;" style="text;html=1;strokeColor=none;fillColor=none;align=center;verticalAlign=middle;whiteSpace=wrap;rounded=0;" vertex="1" parent="1">
          <mxGeometry x="910" y="-110" width="60" height="30" as="geometry" />
        </mxCell>
        <mxCell id="5mBXkaBFSa4gwNnaJI-y-7" value="" style="shape=flexArrow;endArrow=classic;html=1;rounded=0;fontSize=18;fontColor=#000000;strokeColor=#666666;" edge="1" parent="1">
          <mxGeometry width="50" height="50" relative="1" as="geometry">
            <mxPoint x="170" y="-95.5" as="sourcePoint" />
            <mxPoint x="240" y="-95.5" as="targetPoint" />
          </mxGeometry>
        </mxCell>
        <mxCell id="5mBXkaBFSa4gwNnaJI-y-8" value="" style="shape=flexArrow;endArrow=classic;html=1;rounded=0;fontSize=18;fontColor=#000000;" edge="1" parent="1">
          <mxGeometry width="50" height="50" relative="1" as="geometry">
            <mxPoint x="470" y="-95.5" as="sourcePoint" />
            <mxPoint x="540" y="-95.5" as="targetPoint" />
          </mxGeometry>
        </mxCell>
        <mxCell id="5mBXkaBFSa4gwNnaJI-y-12" value="" style="sketch=0;html=1;aspect=fixed;strokeColor=default;shadow=0;align=center;verticalAlign=top;fillColor=none;shape=mxgraph.gcp2.arrow_cycle;fontSize=18;fontColor=#000000;" vertex="1" parent="1">
          <mxGeometry x="750" y="-144.5" width="110" height="104.5" as="geometry" />
        </mxCell>
      </root>
    </mxGraphModel>
  </diagram>
</mxfile>
